<svg xmlns="http://www.w3.org/2000/svg" width="46.829" height="46.829" viewBox="0 0 46.829 46.829" fill="currentColor">
  <g transform="translate(0 0)">
    <path d="M755.266,440.039a10.239,10.239,0,1,1-10.247,10.19A10.208,10.208,0,0,1,755.266,440.039Z" transform="translate(-731.844 -426.863)" />
    <path d="M686.135,480.628c.929,0,1.858-.009,2.787,0a1.843,1.843,0,0,1,1.938,1.845,1.817,1.817,0,0,1-1.906,1.82q-2.865.021-5.729,0a1.834,1.834,0,1,1,.02-3.666C684.208,480.621,685.171,480.629,686.135,480.628Z" transform="translate(-681.345 -459.05)" />
    <path d="M866.386,484.3c-.946,0-1.893.013-2.839,0a1.833,1.833,0,1,1,.027-3.664q2.865-.016,5.73,0a1.832,1.832,0,1,1,.025,3.664C868.347,484.309,867.366,484.3,866.386,484.3Z" transform="translate(-824.351 -459.047)" />
    <path d="M785.628,561.426c0-.946-.013-1.893,0-2.839a1.831,1.831,0,1,1,3.66.027q.02,2.865,0,5.729a1.834,1.834,0,1,1-3.667.025c0-.034,0-.069,0-.1v-2.839Z" transform="translate(-764.046 -519.391)" />
    <path d="M789.278,381.15c0,.948.013,1.9,0,2.845a1.831,1.831,0,1,1-3.66.005q-.023-2.9,0-5.793a1.83,1.83,0,1,1,3.66-.005C789.292,379.184,789.278,380.167,789.278,381.15Z" transform="translate(-764.03 -376.359)" />
    <path d="M713.793,406.356a5.514,5.514,0,0,1,1.216.682c1.382,1.32,2.723,2.684,4.068,4.042a1.833,1.833,0,1,1-2.568,2.614q-2.06-2.031-4.089-4.094a1.826,1.826,0,0,1,1.306-3.119Z" transform="translate(-705.556 -400.149)" />
    <path d="M847.243,540.191a1.883,1.883,0,0,1-1.113,1.887,1.763,1.763,0,0,1-2.046-.4c-.872-.857-1.73-1.728-2.594-2.593-.5-.5-1.005-.992-1.493-1.5a1.823,1.823,0,1,1,2.561-2.6c1.389,1.363,2.777,2.728,4.119,4.136A3.732,3.732,0,0,1,847.243,540.191Z" transform="translate(-806.726 -501.73)" />
    <path d="M847.3,408.748a4.833,4.833,0,0,1-.626,1.191c-1.369,1.43-2.775,2.826-4.192,4.209a1.824,1.824,0,0,1-2.592-2.565c1.393-1.431,2.813-2.837,4.241-4.233a1.68,1.68,0,0,1,1.963-.329A2.023,2.023,0,0,1,847.3,408.748Z" transform="translate(-806.693 -400.536)" />
    <path d="M713.7,542.312a2.051,2.051,0,0,1-1.689-1.186,1.649,1.649,0,0,1,.263-1.928c1.423-1.474,2.866-2.93,4.344-4.348a1.788,1.788,0,0,1,2.517.134,1.811,1.811,0,0,1,0,2.486c-1.394,1.43-2.8,2.847-4.245,4.227A4.722,4.722,0,0,1,713.7,542.312Z" transform="translate(-705.511 -501.693)" />
  </g>
</svg>
