<svg xmlns="http://www.w3.org/2000/svg" width="43.58" height="27.963" viewBox="0 0 43.58 27.963" fill="currentColor">
  <path id="Path_613" data-name="Path 613" d="M391.406,980.591a15.378,15.378,0,0,0,1.779,1.527q-.558.3-1.145.546a14,14,0,1,1,6-4.847,9.117,9.117,0,0,1-2.825-2.295,10.346,10.346,0,1,0-4.856,3.911A15.432,15.432,0,0,0,391.406,980.591ZM415.1,964.34a13.995,13.995,0,0,0-18.325-7.439q-.587.248-1.145.546a15.453,15.453,0,0,1,2.824,2.684,10.376,10.376,0,1,1-4.856,3.911,9.115,9.115,0,0,0-2.825-2.295A13.98,13.98,0,1,0,415.1,964.34Z" transform="translate(-372.616 -955.801)"/>
</svg>
