<svg xmlns="http://www.w3.org/2000/svg" width="345.118" height="113.135" viewBox="0 0 345.118 113.135">
  <g id="Logo_banner" data-name="Logo banner" transform="translate(-44.866 -70.083)">
    <g id="Group_31" data-name="Group 31" transform="translate(44.866 70.083)">
      <path id="Path_27" data-name="Path 27" d="M150.589,47.25H95.94V160.375h54.649Z" transform="translate(-37.974 -47.25)" fill="#0051ff" fill-rule="evenodd"/>
      <path id="Path_28" data-name="Path 28" d="M257.15,160.385V47.25H311.8V160.375H257.15Z" transform="translate(-24.452 -47.25)" fill="#00d4c2" fill-rule="evenodd"/>
      <path id="Path_29" data-name="Path 29" d="M42.46,69.55H96.491v64.794H42.46Z" transform="translate(-42.46 -45.379)" fill="#fff" fill-rule="evenodd"/>
      <path id="Path_30" data-name="Path 30" d="M149.99,69.55h54.031v64.794H149.99V69.55Z" transform="translate(-33.44 -45.379)" fill="#fff" fill-rule="evenodd"/>
      <path id="Path_31" data-name="Path 31" d="M67.767,76.7a5.764,5.764,0,0,1,4.195,1.68,5.644,5.644,0,0,1,1.723,4.173,5.51,5.51,0,0,1-1.723,4.1,5.7,5.7,0,0,1-4.195,1.7,5.58,5.58,0,0,1-4.065-1.7,5.5,5.5,0,0,1-1.713-4.1A5.867,5.867,0,0,1,67.767,76.7ZM72.6,125.984H63.128v-32.2H72.6Z" transform="translate(-40.822 -44.78)" fill-rule="evenodd"/>
      <path id="Path_32" data-name="Path 32" d="M192.633,109.607h-23.4a6.807,6.807,0,0,0,2.655,4.607,8.427,8.427,0,0,0,5.3,1.723,8.57,8.57,0,0,0,4.13-1.051,8.037,8.037,0,0,0,3.046-2.807l6.818,4.466q-4.048,7.284-13.863,7.295a18.046,18.046,0,0,1-12.605-4.7,16.879,16.879,0,0,1-.065-24.062,16.517,16.517,0,0,1,12.063-4.943,15.3,15.3,0,0,1,16.052,16.1C192.753,107.5,192.72,108.632,192.633,109.607Zm-23.173-6.221h13.884a5.86,5.86,0,0,0-2.027-3.956,7.029,7.029,0,0,0-4.856-1.647,6.5,6.5,0,0,0-4.834,1.864A6.8,6.8,0,0,0,169.46,103.386Z" transform="translate(-32.631 -43.653)" fill-rule="evenodd"/>
      <path id="Path_33" data-name="Path 33" d="M311.02,134.344h54.031V69.55H311.02Z" transform="translate(-19.933 -45.379)" fill="#fff" fill-rule="evenodd"/>
      <path id="Path_34" data-name="Path 34" d="M353.674,110.687h-23.4a6.8,6.8,0,0,0,2.645,4.617,8.46,8.46,0,0,0,5.322,1.712,8.57,8.57,0,0,0,4.13-1.051,7.79,7.79,0,0,0,3.046-2.807l6.818,4.466q-4.048,7.3-13.885,7.305a18.114,18.114,0,0,1-12.606-4.7,16.892,16.892,0,0,1-.065-24.073,16.577,16.577,0,0,1,12.074-4.942,15.314,15.314,0,0,1,16.052,16.1C353.793,108.585,353.75,109.723,353.674,110.687ZM330.5,104.466h13.884a5.814,5.814,0,0,0-2.027-3.945,6.983,6.983,0,0,0-4.856-1.658,6.551,6.551,0,0,0-4.834,1.875A6.713,6.713,0,0,0,330.5,104.466Z" transform="translate(-19.124 -43.563)" fill-rule="evenodd"/>
      <path id="Path_35" data-name="Path 35" d="M311.157,83.872V139.5l-32.18-14.622h9.711v-23.7L264.81,87.113h14.166l9.711,6.081V87.113h14.177V77.64Z" transform="translate(-23.809 -44.701)" fill-rule="evenodd"/>
      <path id="Path_36" data-name="Path 36" d="M278.976,124.875V87.123H264.81V77.65h38.055v9.473H288.688v37.762h-9.711Z" transform="translate(-23.809 -44.7)" fill="#fff" fill-rule="evenodd"/>
      <path id="Path_37" data-name="Path 37" d="M149.928,139.465v-52.5l-8.53-9.311v24.214l-1.843-3.176L114.973,77.64,131.741,106.6l9.657,6.926v11.348h-3.046V111.923L113.467,94.18v30.7H103.82Z" transform="translate(-37.313 -44.701)" fill-rule="evenodd"/>
      <path id="Path_38" data-name="Path 38" d="M113.467,94.179v30.7H103.82V77.65h11.164l16.768,28.961V77.65h9.657v47.235h-9.961Z" transform="translate(-37.313 -44.7)" fill="#fff" fill-rule="evenodd"/>
      <path id="Path_39" data-name="Path 39" d="M257.849,160.385V47.25H203.2V160.375h54.649Z" transform="translate(-28.977 -47.25)" fill="red" fill-rule="evenodd"/>
      <path id="Path_40" data-name="Path 40" d="M256.939,139.345V90.56l-11.76-12.79v9.289H223.827V97.085l12.443,9.289H223.827v18.632H214.05Z" transform="translate(-28.067 -44.69)" fill-rule="evenodd"/>
      <path id="Path_41" data-name="Path 41" d="M223.827,97.075h19.12v9.289h-19.12V125H214.05V77.76h31.129v9.289H223.827Z" transform="translate(-28.067 -44.691)" fill="#fff" fill-rule="evenodd"/>
      <path id="Path_42" data-name="Path 42" d="M67.014,57.18H94.1v2.157h-26V67.13H65.941V58.264L65.93,57.18ZM68.1,138.839v7.771h26v2.168H65.93l.011-1.084v-8.866H68.1ZM156.987,57.18H211.04v2.157H156.987Zm0,89.442H211.04v2.168H156.987ZM332,57.18h27.184v9.95h-2.168V59.337H332ZM359.2,138.839v9.95H332.012v-2.168h25.016V138.85H359.2Z" transform="translate(-40.491 -46.417)" fill="#fff" fill-rule="evenodd"/>
    </g>
  </g>
</svg>
