<svg xmlns="http://www.w3.org/2000/svg" width="53.329" height="53.329" viewBox="0 0 53.329 53.329" fill="currentColor">
  <path d="M44.33,17.332l3.666-7L43.33,5.666l-7,3.666A11.94,11.94,0,0,0,32.664,8L30,0H23.332L20.665,7.666A13.93,13.93,0,0,0,17.332,9l-7-3.666-5,5,3.666,7a13.93,13.93,0,0,0-1.333,3.333L0,23.332V30l7.666,2.666C8,34,8.666,35,9,36.331l-3.666,7L10,48l7-3.666a11.94,11.94,0,0,0,3.666,1.333l2.666,7.666H30l2.666-7.666c1.333-.333,2.333-1,3.666-1.333l7,3.666L48,43.33l-3.666-7a11.94,11.94,0,0,0,1.333-3.666L53.329,30V23.332l-7.666-2.666A13.93,13.93,0,0,0,44.33,17.332ZM26.665,36.664a9.821,9.821,0,0,1-10-10,9.821,9.821,0,0,1,10-10,9.821,9.821,0,0,1,10,10A9.821,9.821,0,0,1,26.665,36.664Z" />
</svg>
