<svg xmlns="http://www.w3.org/2000/svg" width="44.313" height="35.773" viewBox="0 0 44.313 35.773" fill="currentColor">
  <g transform="translate(0 0)" >
    <path d="M1630.631,2774.353a4.552,4.552,0,1,0,.979,1.452A4.554,4.554,0,0,0,1630.631,2774.353Z" transform="translate(-1605.245 -2746.375)" />
    <path d="M214.231,581.839a31.267,31.267,0,0,0-9.941-6.733,31.051,31.051,0,0,0-5.877-1.831,31.509,31.509,0,0,0-12.6-.005,31.039,31.039,0,0,0-11.155,4.691,31.429,31.429,0,0,0-4.618,3.807l-.063.063,3.269,3.269.063-.063a26.584,26.584,0,0,1,37.649.071l.063.063,3.269-3.269Z" transform="translate(-169.98 -572.636)" />
    <path d="M717.611,1310.83a22.3,22.3,0,0,0-28.3,2.679l-.063.063,3.269,3.269.063-.063a17.692,17.692,0,0,1,25.075.071l.063.063,3.269-3.269-.062-.063A22.484,22.484,0,0,0,717.611,1310.83Z" transform="translate(-682.957 -1298.09)" />
    <path d="M1223.318,2042.4a13.412,13.412,0,0,0-14.752,2.85l-.063.063,3.269,3.269.063-.062a8.8,8.8,0,0,1,12.5.071l.063.064,3.27-3.27-.062-.063A13.377,13.377,0,0,0,1223.318,2042.4Z" transform="translate(-1195.929 -2023.546)" />
  </g>
</svg>
